<svg xmlns="http://www.w3.org/2000/svg" xmlns:xlink="http://www.w3.org/1999/xlink" viewBox="0 0 129.89 48.41"><defs><style>.cls-1{fill:#fff;}.cls-2{fill:#dde6eb;}.cls-3{fill:#fdb24f;}.cls-4{fill:#feb53d;}.cls-5{fill:url(#未命名的渐变_11);}.cls-6{fill:#28409c;}.cls-7{fill:#f8ac59;}.cls-8{fill:#34495e;}</style><linearGradient id="未命名的渐变_11" x1="8.86" y1="24.19" x2="50.23" y2="24.19" gradientTransform="translate(26.27 -15.05) rotate(45)" gradientUnits="userSpaceOnUse"><stop offset="0" stop-color="#172a72"/><stop offset="1" stop-color="#24409e"/></linearGradient></defs><title>two</title><g id="图层_2" data-name="图层 2"><g id="图层_1-2" data-name="图层 1"><path class="cls-1" d="M125.45.5H62.3a1.05,1.05,0,0,0-.74,1.8l2,2a12.87,12.87,0,0,1,0,18.2L40.42,45.72a1.28,1.28,0,0,0,.91,2.19h84.12a4.16,4.16,0,0,0,3.94-4.34V4.84A4.16,4.16,0,0,0,125.45.5Z"/><path class="cls-2" d="M125.45,48.41H41.33a1.78,1.78,0,0,1-1.26-3L63.25,22.19a12.37,12.37,0,0,0,0-17.49l-2-2A1.53,1.53,0,0,1,60.87,1,1.53,1.53,0,0,1,62.3,0h63.15a4.66,4.66,0,0,1,4.44,4.84V43.56A4.66,4.66,0,0,1,125.45,48.41ZM62.3,1a.55.55,0,0,0-.39.94l2,2a13.37,13.37,0,0,1,0,18.91L40.77,46.07a.78.78,0,0,0,.55,1.33h84.12a3.66,3.66,0,0,0,3.44-3.84V4.84A3.66,3.66,0,0,0,125.45,1Z"/><path class="cls-3" d="M19.91,15.55H66.1a0,0,0,0,1,0,0v8.78a8.5,8.5,0,0,1-8.5,8.5H19.91a0,0,0,0,1,0,0V15.55a0,0,0,0,1,0,0Z" transform="translate(-4.51 37.49) rotate(-45)"/><path class="cls-4" d="M9.19,19.58H44a0,0,0,0,1,0,0V36.86a0,0,0,0,1,0,0H17.69a8.5,8.5,0,0,1-8.5-8.5V19.58A0,0,0,0,1,9.19,19.58Z" transform="translate(27.74 -10.54) rotate(45)"/><path class="cls-5" d="M8.21,15.55H54.4a0,0,0,0,1,0,0v8.78a8.5,8.5,0,0,1-8.5,8.5H8.21a0,0,0,0,1,0,0V15.55A0,0,0,0,1,8.21,15.55Z" transform="translate(-7.93 29.22) rotate(-45)"/><path class="cls-6" d="M-2.51,19.58H32.28a0,0,0,0,1,0,0V36.86a0,0,0,0,1,0,0H6a8.5,8.5,0,0,1-8.5-8.5V19.58a0,0,0,0,1,0,0Z" transform="translate(24.31 -2.26) rotate(45)"/><polygon class="cls-7" points="101.6 29.82 102.68 32.01 105.1 32.36 103.35 34.07 103.77 36.48 101.6 35.34 99.44 36.48 99.85 34.07 98.1 32.36 100.52 32.01 101.6 29.82"/><polygon class="cls-7" points="93.18 29.82 94.26 32.01 96.68 32.36 94.93 34.07 95.34 36.48 93.18 35.34 91.01 36.48 91.43 34.07 89.68 32.36 92.09 32.01 93.18 29.82"/><rect class="cls-7" x="73.68" y="33.05" width="14" height="0.8"/><rect class="cls-7" x="107.77" y="33.05" width="14" height="0.8"/><path class="cls-8" d="M82.09,18.9a7.71,7.71,0,0,1-1.62,2.63,31,31,0,0,1,3.73,1.84l-.94,1a26,26,0,0,0-3.78-2,12.13,12.13,0,0,1-5,2,5.15,5.15,0,0,0-.69-1.05,12,12,0,0,0,4.45-1.46c-1-.42-2.14-.83-3.11-1.14h0a20.53,20.53,0,0,0,1.24-1.8H73.68V17.82H77a17.93,17.93,0,0,0,.92-1.93l1.26.26c-.22.53-.51,1.11-.79,1.67h6V18.9Zm-7-1.89H74v-2.6h4.4c-.16-.36-.35-.78-.52-1.12L79,13c.25.44.52,1,.7,1.41H84.1V17H82.87V15.49H75.12Zm2.67,1.89c-.28.47-.56.91-.83,1.31.75.25,1.56.54,2.35.85a5.92,5.92,0,0,0,1.46-2.16Z"/><path class="cls-8" d="M92,18.53v1.72h3.13v1H92V23h4.66v1H86.19V23h4.58V21.25h-3v-1h3V18.53H87.66v-.79c-.43.26-.89.52-1.33.73a4.29,4.29,0,0,0-.79-.94,13.2,13.2,0,0,0,5.69-4.61l1,.48-.22.32a16.43,16.43,0,0,0,5.24,3.83,3.31,3.31,0,0,0-.78,1c-.46-.26-.9-.52-1.32-.78v.78Zm2.83-1a18.33,18.33,0,0,1-3.45-3,15.74,15.74,0,0,1-3.37,3Z"/><path class="cls-8" d="M101.25,21.57l-3.09.8-.22-.93c.84-.17,2-.46,3.23-.75Zm.94-8c-.11,1.66-.26,3.82-.42,5.18h1s0,.3,0,.43c-.19,3.09-.35,4.26-.73,4.67a1.11,1.11,0,0,1-.84.41,12.05,12.05,0,0,1-1.48,0,2.24,2.24,0,0,0-.3-.94c.58,0,1.11.06,1.35.06s.32,0,.43-.15.4-1.2.54-3.56H98.46c.15-1.09.28-2.9.36-4.25l1,0c-.06,1-.16,2.3-.26,3.3h1.27c.14-1.14.28-2.77.37-4.21H98.31v-1Zm5.57,3.25a17.39,17.39,0,0,1-1.92-2,12.36,12.36,0,0,1-3.05,3.1,6.65,6.65,0,0,0-.67-.91,9.8,9.8,0,0,0,3.57-4l1,.33a6.23,6.23,0,0,1-.28.57,12,12,0,0,0,3.18,2.89,5,5,0,0,0-.54,1.1c-.4-.28-.8-.61-1.21-1v.91h-3.71v-1Zm1.43,2.11a40.42,40.42,0,0,1-1.66,3.89h1.69v1h-6.29v-1h3.63a26.82,26.82,0,0,0,1.58-4.14Zm-5.17,3A17.68,17.68,0,0,0,103.3,19l.88-.22a16.54,16.54,0,0,1,.79,2.89Zm1.89-.33a22.75,22.75,0,0,0-.47-2.92l.88-.12a19.82,19.82,0,0,1,.53,2.89Z"/><path class="cls-8" d="M114.39,20.76a5.94,5.94,0,0,0,.44,1,19.7,19.7,0,0,0-2.69,2.34,3.52,3.52,0,0,0-.72-.77,2,2,0,0,0,.73-1.45V18h-1.61v-1.1h2.72v4.82ZM113,15.92a14.48,14.48,0,0,0-1.9-1.92l.75-.69a16.63,16.63,0,0,1,2,1.82Zm8.74,6.91v1.08H114.3V22.83h1V17.1h1.14v5.73h1.45V15h-3.2V13.91h6.86V15H119v3h2.25v1.06H119v3.77Z"/></g></g></svg>