<svg width="26" height="26" viewBox="0 0 26 26" fill="none" xmlns="http://www.w3.org/2000/svg">
<path d="M25.259 13.302L22.269 10.201L17.615 5.41589L8.30701 14.9595L12.961 19.7446L17.589 14.9862L22.217 19.7446L25.259 16.6169C26.169 15.708 26.169 14.2109 25.259 13.302Z" fill="url(#paint0_linear_1805_3624)"/>
<path d="M3.653 10.201L0.663 13.302C-0.221 14.2109 -0.221 15.708 0.663 16.6436L3.679 19.7446L8.307 14.9595V5.41589L3.653 10.201Z" fill="url(#paint1_linear_1805_3624)"/>
<path d="M8.30701 5.41589V14.9595L12.961 10.201L8.30701 5.41589Z" fill="url(#paint2_linear_1805_3624)"/>
<defs>
<linearGradient id="paint0_linear_1805_3624" x1="8.25638" y1="12.585" x2="25.8767" y2="12.585" gradientUnits="userSpaceOnUse">
<stop stop-color="#004DFF"/>
<stop offset="0.1293" stop-color="#0162FF"/>
<stop offset="0.3197" stop-color="#027AFE"/>
<stop offset="0.5209" stop-color="#038BFE"/>
<stop offset="0.7381" stop-color="#0496FE"/>
<stop offset="1" stop-color="#0499FE"/>
</linearGradient>
<linearGradient id="paint1_linear_1805_3624" x1="-0.913666" y1="24.6836" x2="5.5379" y2="12.6244" gradientUnits="userSpaceOnUse">
<stop stop-color="#0038FF"/>
<stop offset="0.4056" stop-color="#0145FF"/>
<stop offset="1" stop-color="#045FFE"/>
</linearGradient>
<linearGradient id="paint2_linear_1805_3624" x1="10.5564" y1="14.9016" x2="10.6245" y2="9.41052" gradientUnits="userSpaceOnUse">
<stop stop-color="#0000B8"/>
<stop offset="0.225" stop-color="#0108C2"/>
<stop offset="0.6032" stop-color="#021EDC"/>
<stop offset="1" stop-color="#043BFE"/>
</linearGradient>
</defs>
</svg>
